<?xml version="1.0" encoding="UTF-8"?>
<svg width="60px" height="60px" viewBox="0 0 60 60" version="1.1" xmlns="http://www.w3.org/2000/svg" xmlns:xlink="http://www.w3.org/1999/xlink">
    <!-- Generator: Sketch 49.3 (51167) - http://www.bohemiancoding.com/sketch -->
    <title>favorite heart SVGS</title>
    <desc>Created with Sketch.</desc>
    <defs></defs>
    <g id="favorite-heart-SVGS" stroke="none" stroke-width="1" fill="none" fill-rule="evenodd">
        <g id="fave_off">
            <circle id="Oval-Copy" fill="#FFFFFF" cx="30" cy="30" r="29"></circle>
            <path d="M30,2 C45.4,2 58,14.6 58,30 C58,45.4 45.4,58 30,58 C14.6,58 2,45.4 2,30 C2,14.6 14.6,2 30,2 Z M30,0 C13.4,0 0,13.4 0,30 C0,46.6 13.4,60 30,60 C46.6,60 60,46.6 60,30 C60,13.4 46.6,0 30,0 Z" id="Shape" fill="#171717" fill-rule="nonzero"></path>
            <path d="M37.1,20 C40.4,20 43,22.6 43,25.8 C43,30.6 39.7,34.6 36.9,37.1 C34.1,39.6 31.2,41.2 30,41.8 C28.8,41.2 25.9,39.5 23.1,37.1 C20.3,34.6 17,30.6 17,25.8 C17,22.6 19.7,20 22.9,20 C25.1,20 27.2,21.2 28.2,23.2 L30,26.6 L31.8,23.2 C32.8,21.2 34.8,20 37.1,20 Z M37.1,18 C34,18 31.4,19.7 30,22.2 C28.7,19.7 26,18 22.9,18 C18.5,18 15,21.5 15,25.8 C15,36.8 29.3,44 30,44 C30.7,44 45,36.8 45,25.8 C45,21.5 41.4,18 37.1,18 Z" id="Shape" fill="#171717" fill-rule="nonzero"></path>
        </g>
    </g>
</svg>